<svg xmlns="http://www.w3.org/2000/svg" xmlns:xlink="http://www.w3.org/1999/xlink" version="1.2" viewBox="0 0 512 512" baseProfile="tiny-ps">  <title>rev-brands-bimi</title>  <rect x="-0.523" y="-1.139" width="512" height="512" fill="#FFFFFF"/>  <g>    <path d="M272.246,95.924c-3.731-3.921-7.671-6.9-11.726-8.866c-3.815-1.818-7.022-2.755-9.496-2.755h-24.371v181.769h24.371   c2.559,0,5.82-0.875,9.696-2.57c3.978-1.761,7.881-4.547,11.603-8.24c3.788-3.826,7.166-8.885,10.012-15.085   c2.789-6.092,4.198-13.649,4.198-22.395v-84.638c0-8.361-1.408-15.727-4.206-21.852C279.442,105.032,276.034,99.854,272.246,95.924   z"/>    <path d="M272.626,325.767c0-7.309-0.96-13.173-2.844-17.465c-1.809-4.055-4.112-7.13-6.825-9.128   c-2.867-2.104-5.999-3.54-9.287-4.292c-3.854-0.885-7.367-1.523-10.507-1.875l-16.509,0.038v135.991v1.284   c0.319,4.968,3.783,5.568,5.097,5.797c13.615,1.722,27.335,2.151,43.59,0.257c-1.524-5.577-2.438-11.993-2.714-19.093v-91.514   H272.626z"/>    <path d="M442.977,250.108c0-89.453-64.76-165.263-150.743-184.284l0.029-0.019c-1.095-0.243-2.704-0.709-3.96-0.805   c-0.837-0.057-1.513,0.038-1.77,0.486c-0.143,0.242-0.104,0.561,0.162,0.771c0.999,0.766,2.798,1.589,2.798,1.589   c9.766,4.483,17.674,10.008,25.222,17.955c2.808,2.96,5.454,6.297,8.119,10.213c3.77,5.548,6.786,11.398,8.975,17.355   c3.75,10.289,5.644,21.082,5.644,32.028v60.686c0,15.371-3.988,30.515-11.84,45.019c-0.857,1.59-1.799,3.132-2.76,4.645   c-6.063,9.45-14.172,17.245-24.194,23.24c16.351,10.213,24.689,26.441,24.842,48.408v78.789c0,0.523,0.009,1.056,0.019,1.56v8.243   c0.029,0.341,0.056,0.675,0.104,0.97c0.162,8.699,0.486,16.951,1.408,24.537c0.382,3.018,0.772,6.015,1.41,8.813   c0.114,0.353,0.2,0.723,0.333,1.066c0.105,0.486,0.314,0.914,0.438,1.381c4.225,9.898,14.048,16.856,25.488,16.856   c8.319,0,15.714-3.712,20.758-9.546l0.01,0.019c0.009-0.019,0.019-0.058,0.028-0.058c1.209-1.417,2.313-2.94,3.227-4.568   c-0.314,0-0.61,0.095-0.924,0.095c-1.238,0-2.445-0.095-3.645-0.247c-0.828-0.201-1.551-0.257-1.656-0.257   c-4.568-0.904-8.738-2.922-12.203-5.777c-21.51-19.132,8.252-47.675,16.866-55.176c0.675-0.561,1.361-1.122,2.018-1.703   c0.114-0.095,0.181-0.133,0.181-0.133h-0.01C418.288,357.158,442.977,305.428,442.977,250.108z"/>    <path d="M175.338,68.223c-0.376-3.037-0.766-6.035-1.394-8.81c-0.114-0.338-0.21-0.713-0.338-1.066   c-0.114-0.49-0.319-0.923-0.452-1.408c-4.225-9.894-14.043-16.828-25.479-16.828c-8.318,0-15.714,3.712-20.763,9.537v-0.019   c-0.019,0.019-0.019,0.038-0.038,0.057c-1.218,1.409-2.294,2.941-3.222,4.554c0.319,0,0.609-0.09,0.928-0.09   c1.238,0,2.446,0.09,3.645,0.239c0.833,0.228,1.542,0.285,1.647,0.304c4.573,0.857,8.733,2.884,12.211,5.748   c17.118,15.219,1.732,36.434-9.589,48.227c-40.441,35.006-64.412,86.003-64.517,141.083   c0.134,70.391,39.276,134.152,102.131,166.388c0.481,0.218,1.565,0.314,2.917-0.114c-0.105-0.095,0.747-0.334,2.237-2.665   c0.599-0.933,1.604-3.294,1.604-8.614V187.043v-83.515v-8.784c0-1.181-0.048-2.232-0.138-3.132   C176.556,83.346,176.228,75.474,175.338,68.223z"/>  </g></svg>